<?xml version="1.0" encoding="utf-8"?>
<!-- Generator: Adobe Illustrator 18.1.1, SVG Export Plug-In . SVG Version: 6.00 Build 0)  -->
<!DOCTYPE svg PUBLIC "-//W3C//DTD SVG 1.1//EN" "http://www.w3.org/Graphics/SVG/1.1/DTD/svg11.dtd">
<svg version="1.1" id="Layer_1" xmlns="http://www.w3.org/2000/svg" xmlns:xlink="http://www.w3.org/1999/xlink" x="0px" y="0px"
	 viewBox="0 0 1204.7 311.8" enable-background="new 0 0 1204.7 311.8" xml:space="preserve">
<g>
	<g>
		<path fill="#010101" d="M385,201.3h0.6l35.5-107.6c1.5-4.9,4.7-7.4,8.9-7.4c5.3,0,9.1,3.8,9.1,8.9c0,1.3-0.2,2.8-0.9,4.7
			l-41.9,122.3c-2.8,7.7-5.7,10.8-11.7,10.8c-5.7,0-8.9-3.2-11.5-10.8L331.5,99.8c-0.6-1.9-0.9-3.4-0.9-4.7c0-5.1,3.8-8.9,9.1-8.9
			c4.5,0,7.4,2.6,9.1,7.4L385,201.3z"/>
		<path fill="#010101" d="M462.3,138.5c0-6,3.8-9.6,8.9-9.6c5.1,0,8.9,3.6,8.9,9.6v84.8c0,6-3.8,9.6-8.9,9.6c-5.1,0-8.9-3.6-8.9-9.6
			V138.5z"/>
		<path fill="#010101" d="M506.2,138.5c0-6,3.8-9.6,8.9-9.6c5.1,0,8.9,3.6,8.9,9.6v3h0.2c4.9-7.9,14.7-13.8,28.5-13.8
			c22.1,0,35.3,15.1,35.3,38.3v57.4c0,6-3.8,9.6-8.9,9.6c-5.1,0-8.9-3.6-8.9-9.6v-53.2c0-16.4-7.4-25.9-22.8-25.9
			c-13.8,0-23.4,9.8-23.4,24.9v54.2c0,6-3.8,9.6-8.9,9.6c-5.1,0-8.9-3.6-8.9-9.6V138.5z"/>
		<path fill="#010101" d="M614.1,138.5c0-6,3.8-9.6,8.9-9.6s8.9,3.6,8.9,9.6v3h0.2c4.9-7.9,14.7-13.8,28.5-13.8
			c22.1,0,35.3,15.1,35.3,38.3v57.4c0,6-3.8,9.6-8.9,9.6s-8.9-3.6-8.9-9.6v-53.2c0-16.4-7.4-25.9-22.8-25.9
			c-13.8,0-23.4,9.8-23.4,24.9v54.2c0,6-3.8,9.6-8.9,9.6s-8.9-3.6-8.9-9.6V138.5z"/>
		<path fill="#010101" d="M722,206.8c-2.3-7-3.4-14-3.4-25.9c0-11.7,1.1-18.7,3.4-25.7c5.5-17.4,20.4-27.4,40.2-27.4
			c19.8,0,34.7,10,40.2,27.4c2.3,7,3.4,14,3.4,25.7c0,11.9-1.1,18.9-3.4,25.9c-5.5,17.2-20.4,27.4-40.2,27.4
			C742.4,234.2,727.5,224,722,206.8z M785.1,201.7c1.7-5.5,2.3-11.1,2.3-20.8c0-9.8-0.6-15.1-2.3-20.6c-3.4-10.2-11.7-15.9-23-15.9
			c-11.3,0-19.6,5.7-23,15.9c-1.7,5.5-2.3,10.8-2.3,20.6c0,9.8,0.6,15.3,2.3,20.8c3.4,10.2,11.7,15.9,23,15.9
			C773.4,217.6,781.7,211.9,785.1,201.7z"/>
		<path fill="#010101" d="M852.2,221.9l-30.8-80c-0.6-1.7-0.9-3-0.9-4.5c0-4.7,3.4-8.5,8.7-8.5c4.3,0,7,2.6,8.5,6.4l26.4,70.8h0.4
			l25.7-70.8c1.5-3.8,4.3-6.4,8.5-6.4c5.3,0,8.7,3.8,8.7,8.5c0,1.5-0.2,2.8-0.9,4.5l-31,80c-3.2,8.3-6,11.1-11.7,11.1
			C858.1,232.9,855.4,230.2,852.2,221.9z"/>
		<path fill="#010101" d="M925.7,205.9c-2.1-6.4-3.4-13.6-3.4-25.7c0-12.1,1.1-19.3,3.2-25.7c5.7-17.6,20.4-27.4,39.8-27.4
			c20,0,34.4,9.8,40,27.2c2.3,6.8,3.4,14.7,3.4,24.7c0,4-2.8,6.8-7,6.8h-59.8c-0.9,0-1.3,0.4-1.3,1.3c0,4.9,0.4,8.3,1.7,12.3
			C946.1,211,955.5,217,968,217c10,0,16.8-3,24.5-8.7c2.1-1.7,4-2.6,6.2-2.6c4.3,0,7.4,3.2,7.4,7.4c0,2.6-1.1,4.7-2.8,6.4
			c-8.7,8.1-20.8,14-36.6,14C945.7,233.6,931.4,223.8,925.7,205.9z M989.1,171.5c0.9,0,1.3-0.4,1.3-1.3c0-4.7-0.4-8.3-1.5-11.5
			c-3.4-10.2-11.9-15.9-23.4-15.9c-11.5,0-20,5.7-23.4,15.9c-1.1,3.2-1.5,6.8-1.5,11.5c0,0.9,0.4,1.3,1.3,1.3H989.1z"/>
		<path fill="#010101" d="M1034.7,222.7v-84.8c0-6,3.8-9.6,8.9-9.6s8.9,3.6,8.9,9.6v4.7h0.2c4.3-9.1,13.6-15.5,26.2-15.5
			c7,0,11.7,1.7,15.1,3.6c3.6,1.9,5.1,4.7,5.1,7.7c0,5.1-3.6,8.9-8.9,8.9c-1.3,0-3-0.4-4.5-1.1c-3.8-1.5-7.4-2.6-11.7-2.6
			c-15.3,0-21.5,12.8-21.5,29.8v49.3c0,6-3.8,9.6-8.9,9.6S1034.7,228.7,1034.7,222.7z"/>
		<path fill="#010101" d="M1199.5,223.8c0,4.9-3.8,8.5-9.1,8.5c-3.2,0-5.7-1.5-7.9-4.5l-4-6.4h-0.2c-6.8,7.7-16.4,12.1-31.3,12.1
			c-22.8,0-35.9-11.3-35.9-30.6c0-21.1,14.5-31.5,39.8-31.5h23.2c0.9,0,1.3-0.4,1.3-1.3v-4.9c0-14.2-6.6-22.3-24.5-22.3
			c-7.9,0-15.9,2.6-20.8,5.1c-1.7,0.9-3.6,1.5-5.1,1.5c-4.7,0-7.7-3-7.7-7.7c0-2.8,1.3-5.5,4.3-7.2c6.4-4.3,17-7.7,31-7.7
			c27.2,0,40,13,40,38.1v36.6c0,5.3,0.4,7.4,1.9,10.4l3.6,6.6C1198.9,220.2,1199.5,222.1,1199.5,223.8z M1175.3,198.3V187
			c0-0.9-0.4-1.3-1.3-1.3h-20.4c-17.4,0-25.3,5.1-25.3,16.6c0,10.6,7.7,15.9,21.3,15.9C1165.3,218.3,1175.3,210.8,1175.3,198.3z"/>
	</g>
	<path fill="#55A4DB" d="M459.5,97.9c0-6.6,5.3-11.7,11.7-11.7c6.4,0,11.7,5.1,11.7,11.7c0,6.4-5.3,11.7-11.7,11.7
		C464.8,109.6,459.5,104.3,459.5,97.9z"/>
</g>
<g>
	<g>
		<circle fill="#010101" cx="149.6" cy="149.6" r="149.6"/>
		<g>
			<path fill="#FFFFFF" d="M116,229.8l-1,0c-18.1-0.8-33.6-25.2-47.2-74.4c-9.7-35.2-14.9-70.9-15-71.2c-0.4-2.9,1.6-5.6,4.5-6
				c2.9-0.4,5.5,1.6,6,4.5c0.1,0.4,5.1,35.4,14.7,70c11.6,41.7,25.2,65.9,37.4,66.6c6.4-0.4,17.6-11.4,29-41.3
				c0.7-1.7,1.3-3.4,1.9-5.2c-5.8-20.6-9.1-42.7-9.1-58.8c0-10,1.2-18.1,3.5-23.9c4.1-10.4,11.2-11.9,15-11.9
				c3.5-0.1,8.8,0.6,12.1,9.6c1.6,4.4,2.6,10.2,2.6,17.7c0,16.2-4.9,43.1-13.1,67.7c7.7,25.6,18.6,46.1,27.4,46.1
				c5.3,0,11.8-6.8,17.3-16.2c-5.2-11.8-8.2-25.2-8.2-34.6c0-5.6,0.9-10.2,2.8-13.6c2.5-4.6,6.6-7.1,11.7-7.1c5.1,0,9.1,2.7,12,6.8
				c2.2,3.2,3.1,7.6,3.1,13.1c0,9.6-3.7,23.5-9.7,35.7c4.7,9.1,10.3,15.7,15.1,15.7c1.9,0,4.1-1,8.6-6c2-2.2,5.3-2.3,7.4-0.4
				c2.2,2,2.3,5.3,0.4,7.4c-5.1,5.7-9.9,9.4-16.4,9.4c-8.1,0-15.4-6.5-21.2-15.7c-6.4,9.3-14.4,16-22.9,16
				c-13.3,0-24.8-17.9-33.2-40.8C142.1,211.3,135,229,116,229.8L116,229.8z M204.3,168.1c0.4,7.2,1.5,14.4,3.8,21.6
				c2.8-7.6,4.3-15.5,4.7-22.3C213.4,155.1,203.6,155.4,204.3,168.1z M150.4,93.9c-1.8,4.5-2.7,11.5-2.7,20c0,12.2,1.7,26,4.6,39.4
				c4.7-17.5,7.2-35,7.6-47.9C160.5,84.9,152.5,88.6,150.4,93.9z"/>
		</g>
	</g>
	<path fill="#55A4DB" d="M208.3,101.4c-8.2,0-14.9,7.4-14.9,16.6c0,4.1,1.4,8.5,3.7,12c2.9,4.3,7,6.6,11.2,6.6h0
		c8.8,0,14.9-9.8,14.9-18.6C223.2,108.9,216.5,101.5,208.3,101.4z M208.7,126.1L208.7,126.1c-1.4,0-2.8-1.3-3.7-2.7
		c-0.8-1.2-1.2-2.9-1.2-4.3c0-3,1.7-5.6,5-5.6c3.2,0,5,2.9,5,6C213.6,122.4,211.6,126.1,208.7,126.1z"/>
</g>
</svg>
